<svg width="37" height="6" viewBox="0 0 37 6" fill="none" xmlns="http://www.w3.org/2000/svg">
<path opacity="0.49814" d="M6.1234 3.34519C6.1234 4.09983 5.87578 4.72477 5.38055 5.22C4.89318 5.71524 4.27217 5.96285 3.51752 5.96285C2.76288 5.96285 2.13794 5.71524 1.64271 5.22C1.15533 4.72477 0.911647 4.09983 0.911647 3.34519C0.911647 2.59054 1.15533 1.96953 1.64271 1.48216C2.13794 0.994788 2.76288 0.751101 3.51752 0.751101C4.27217 0.751101 4.89318 0.994788 5.38055 1.48216C5.87578 1.96953 6.1234 2.59054 6.1234 3.34519ZM16.2498 3.34519C16.2498 4.09983 16.0022 4.72477 15.5069 5.22C15.0195 5.71524 14.3985 5.96285 13.6439 5.96285C12.8892 5.96285 12.2643 5.71524 11.7691 5.22C11.2817 4.72477 11.038 4.09983 11.038 3.34519C11.038 2.59054 11.2817 1.96953 11.7691 1.48216C12.2643 0.994788 12.8892 0.751101 13.6439 0.751101C14.3985 0.751101 15.0195 0.994788 15.5069 1.48216C16.0022 1.96953 16.2498 2.59054 16.2498 3.34519ZM26.3761 3.34519C26.3761 4.09983 26.1285 4.72477 25.6333 5.22C25.1459 5.71524 24.5249 5.96285 23.7703 5.96285C23.0156 5.96285 22.3907 5.71524 21.8954 5.22C21.4081 4.72477 21.1644 4.09983 21.1644 3.34519C21.1644 2.59054 21.4081 1.96953 21.8954 1.48216C22.3907 0.994788 23.0156 0.751101 23.7703 0.751101C24.5249 0.751101 25.1459 0.994788 25.6333 1.48216C26.1285 1.96953 26.3761 2.59054 26.3761 3.34519ZM36.5025 3.34519C36.5025 4.09983 36.2549 4.72477 35.7597 5.22C35.2723 5.71524 34.6513 5.96285 33.8966 5.96285C33.142 5.96285 32.517 5.71524 32.0218 5.22C31.5344 4.72477 31.2908 4.09983 31.2908 3.34519C31.2908 2.59054 31.5344 1.96953 32.0218 1.48216C32.517 0.994788 33.142 0.751101 33.8966 0.751101C34.6513 0.751101 35.2723 0.994788 35.7597 1.48216C36.2549 1.96953 36.5025 2.59054 36.5025 3.34519Z" fill="white"/>
</svg>
